<svg width="146" height="58" viewBox="0 0 146 58" fill="none" xmlns="http://www.w3.org/2000/svg">
<g clip-path="url(#clip0_1_8629)">
<path d="M138.846 6.30602C134.538 2.10907 129.438 0.0708008 123.263 0.0708008C115.806 0.0708008 110.053 2.8659 105.667 8.6023C104.437 10.202 103.542 11.7414 103 13.1949C101.908 15.99 101.358 19.0001 101.358 22.1564C101.358 28.0992 103.465 32.9756 107.791 37.0607C112.143 41.1716 117.182 43.1669 123.211 43.1669C129.24 43.1669 134.546 41.1372 138.855 36.9575C143.155 32.795 145.245 27.7724 145.245 21.6232C145.245 15.4739 143.155 10.4944 138.855 6.31462L138.846 6.30602ZM132.104 30.7137C129.842 33.311 126.926 34.6354 123.426 34.6354C119.926 34.6354 116.838 33.3196 114.551 30.7223C112.306 28.1766 111.162 25.0805 111.162 21.5114C111.162 17.9422 112.297 14.9665 114.525 12.4552C116.804 9.90095 119.762 8.6023 123.323 8.6023C126.883 8.6023 129.799 9.92675 132.078 12.5498C134.306 15.1127 135.432 18.183 135.432 21.6748C135.432 25.1665 134.314 28.1766 132.104 30.7137ZM97.4274 0.91363H91.3212C91.3212 0.91363 91.261 0.922231 91.2352 0.948032L67.6446 24.4613C67.4296 24.7537 67.0855 24.9515 66.6985 24.9515C66.0793 24.9515 65.5633 24.4613 65.5289 23.842V1.03403C65.5289 0.965232 65.4773 0.91363 65.4085 0.91363H56.7394C56.7394 0.91363 56.6706 0.930831 56.6448 0.965232L34.6366 30.1891V0.91363H26.9221V18.1228C26.9221 18.1228 26.9221 18.14 26.9221 18.1486C26.9221 18.1572 26.9221 18.1744 26.9221 18.183C26.9221 18.9829 26.2685 19.6365 25.4687 19.6365C24.9097 19.6365 24.428 19.3183 24.1872 18.8539H24.1786L12.8864 0.91363H0.209595V42.3241H7.93267V16.8758C7.93267 16.8242 7.93267 16.7726 7.93267 16.721C7.93267 16.7038 7.93267 16.6866 7.93267 16.6694C7.93267 16.635 7.93267 16.6092 7.94127 16.5748C7.94127 16.549 7.94127 16.5232 7.94127 16.4974C8.02727 15.7836 8.63789 15.2245 9.37752 15.2245C9.83333 15.2245 10.2375 15.4395 10.5042 15.7664C10.5042 15.7664 10.5042 15.7664 10.5042 15.775C10.5386 15.818 10.5644 15.8524 10.5988 15.8954C10.6246 15.9298 10.659 15.9642 10.6848 16.0072L27.2059 42.3241H34.6452C34.6452 42.3241 34.714 42.3069 34.7398 42.2811L54.2883 18.054C54.5807 17.6068 55.0795 17.3402 55.6127 17.3402C56.5502 17.3402 57.307 18.097 57.307 19.0345V42.2037C57.307 42.2725 57.3586 42.3241 57.4274 42.3241H62.8542C62.8542 42.3241 62.9144 42.3155 62.9402 42.2897L86.4878 18.6389C86.7888 18.3292 87.2103 18.1314 87.6747 18.1314C88.5691 18.1314 89.2915 18.8453 89.3259 19.7311V42.2037C89.3259 42.2725 89.3775 42.3241 89.4463 42.3241H97.436C97.5048 42.3241 97.5564 42.2725 97.5564 42.2037V1.03403C97.5564 0.965232 97.5048 0.91363 97.436 0.91363H97.4274Z" fill="white"/>
<path d="M31.4029 50.2966C30.7235 50.2966 30.1301 50.546 29.6484 51.0448C29.1668 51.5437 28.926 52.1457 28.926 52.8337C28.926 53.5217 29.1754 54.1152 29.657 54.6054C30.1387 55.087 30.7407 55.3364 31.4287 55.3364C31.9447 55.3364 32.4091 55.1816 32.8047 54.8892C33.1746 54.614 33.467 54.2614 33.6734 53.8313H32.3575C32.1081 54.1324 31.7899 54.2872 31.4201 54.2872C31.1105 54.2872 30.8353 54.1926 30.6031 54.0205C30.3709 53.8399 30.2333 53.5905 30.1817 53.2895L30.1645 53.1863H33.8626C33.8798 53.0917 33.8798 52.9971 33.8798 52.8853C33.8798 52.1629 33.639 51.5523 33.166 51.0534C32.6929 50.5546 32.0909 50.3052 31.3857 50.3052L31.4029 50.2966ZM30.1817 52.3693L30.2075 52.2575C30.2677 51.9737 30.4139 51.7501 30.6375 51.5867C30.8611 51.4233 31.1191 51.3459 31.4029 51.3459C31.6867 51.3459 31.9533 51.4233 32.1683 51.5867C32.3919 51.7501 32.5381 51.9737 32.5983 52.2575L32.6241 52.3693H30.1731H30.1817ZM10.8654 53.5131H10.7278L10.6934 53.4443L9.77313 50.46H8.45729L10.1429 55.173H11.4158L13.1187 50.46H11.8028L10.8654 53.5131ZM6.63402 55.173H7.91547V50.46H6.63402V55.173ZM27.0167 51.0104L26.8619 50.8556C26.4921 50.4858 26.0449 50.2966 25.4859 50.2966C24.7979 50.2966 24.2302 50.5374 23.8002 51.019C23.3702 51.5007 23.1466 52.1027 23.1466 52.8079C23.1466 53.5131 23.3616 54.1324 23.8002 54.614C24.2302 55.0956 24.8065 55.3364 25.5117 55.3364C26.2169 55.3364 26.6383 55.13 26.8963 54.6914L26.9221 54.6484H27.0683L27.0855 54.743V55.1816H28.2982V48.8346H27.0167V51.0104ZM26.7157 53.7625C26.4663 54.0205 26.1395 54.1496 25.7525 54.1496C25.3655 54.1496 25.0387 54.0205 24.7979 53.7625C24.5571 53.5045 24.4366 53.1777 24.4366 52.7907C24.4366 52.4037 24.5657 52.0941 24.8237 51.8447C25.0817 51.5953 25.3999 51.4663 25.7697 51.4663C26.1395 51.4663 26.4663 51.5953 26.7157 51.8447C26.9651 52.0941 27.0941 52.4123 27.0941 52.7907C27.0941 53.1691 26.9651 53.5045 26.7157 53.7625ZM6.63402 49.7548H7.91547V48.826H6.63402V49.7548ZM4.42374 51.3545C4.42374 51.4835 4.32054 51.5867 4.19154 51.5867C4.10553 51.5867 4.02813 51.5351 3.98513 51.4663L2.20487 48.6368H0.209595V55.173H1.43084V51.1567C1.43084 51.1567 1.43084 51.1394 1.43084 51.1308C1.43084 51.1308 1.43084 51.1222 1.43084 51.1136V51.105C1.44804 50.9932 1.54264 50.9072 1.65445 50.9072C1.72325 50.9072 1.79205 50.9416 1.83505 50.9932C1.83505 50.9932 1.84365 51.0018 1.85225 51.0104C1.85225 51.0104 1.86085 51.019 1.86945 51.0276L4.47535 55.1816H5.64499V48.6454H4.42374V51.3631V51.3545ZM18.8379 55.173H20.1193V48.826H18.8379V55.173ZM15.7073 50.2966C15.0279 50.2966 14.4345 50.546 13.9529 51.0448C13.4713 51.5437 13.2305 52.1457 13.2305 52.8337C13.2305 53.5217 13.4799 54.1152 13.9615 54.6054C14.4431 55.087 15.0451 55.3364 15.7331 55.3364C16.2492 55.3364 16.7136 55.1816 17.1092 54.8892C17.479 54.614 17.7714 54.2614 17.9778 53.8313H16.662C16.4126 54.1324 16.0944 54.2872 15.7245 54.2872C15.4149 54.2872 15.1397 54.1926 14.9075 54.0205C14.6753 53.8399 14.5377 53.5905 14.4861 53.2895L14.4689 53.1863H18.167C18.1842 53.0917 18.1842 52.9971 18.1842 52.8853C18.1842 52.1629 17.9434 51.5523 17.4704 51.0534C16.9974 50.5546 16.404 50.3052 15.6901 50.3052L15.7073 50.2966ZM14.4861 52.3693L14.5119 52.2575C14.5721 51.9737 14.7183 51.7501 14.9419 51.5867C15.1655 51.4233 15.4235 51.3459 15.7073 51.3459C15.9912 51.3459 16.2578 51.4233 16.4728 51.5867C16.6964 51.7501 16.8426 51.9737 16.9028 52.2575L16.9286 52.3693H14.4775H14.4861ZM136.094 50.3998C135.871 50.331 135.656 50.288 135.449 50.288C134.873 50.288 134.46 50.503 134.194 50.933L134.168 50.976H134.022L134.005 50.8814V50.4514H132.818V55.1644H134.099V52.5929C134.099 52.2489 134.168 51.9823 134.297 51.7845C134.435 51.5781 134.684 51.4749 135.028 51.4749C135.372 51.4749 135.596 51.5781 135.716 51.7845C135.828 51.9737 135.888 52.2403 135.888 52.5843V55.1644H137.169V52.1973C137.169 51.4921 136.989 50.9846 136.636 50.6922C136.49 50.5718 136.309 50.4686 136.086 50.3998H136.094ZM106.183 50.3998C105.959 50.331 105.744 50.288 105.538 50.288C104.961 50.288 104.548 50.503 104.282 50.933L104.256 50.976H104.11L104.093 50.8814V50.4514H102.906V55.1644H104.187V52.5929C104.187 52.2489 104.256 51.9823 104.385 51.7845C104.523 51.5781 104.772 51.4749 105.116 51.4749C105.46 51.4749 105.684 51.5781 105.804 51.7845C105.916 51.9737 105.976 52.2403 105.976 52.5843V55.1644H107.258V52.1973C107.258 51.4921 107.077 50.9846 106.724 50.6922C106.578 50.5718 106.398 50.4686 106.174 50.3998H106.183ZM122.041 54.1496C121.672 54.1496 121.362 54.0205 121.13 53.7625C120.898 53.5045 120.786 53.1863 120.786 52.8165C120.786 52.4467 120.898 52.1285 121.113 51.8791C121.336 51.6211 121.637 51.4835 122.007 51.4835C122.54 51.4835 122.927 51.7157 123.16 52.1715H124.467C124.329 51.6297 124.037 51.1825 123.607 50.847C123.142 50.4858 122.601 50.3052 121.99 50.3052C121.293 50.3052 120.7 50.5546 120.218 51.0362C119.737 51.5265 119.496 52.1199 119.496 52.8165C119.496 53.5131 119.745 54.1238 120.235 54.614C120.726 55.1042 121.328 55.345 122.024 55.345C122.618 55.345 123.151 55.1644 123.607 54.8032C124.037 54.4678 124.321 54.0378 124.475 53.5045H123.16C122.91 53.9345 122.54 54.1582 122.05 54.1582L122.041 54.1496ZM84.4496 48.5164C83.2713 48.5164 82.3597 48.955 81.6717 49.8666C81.4739 50.116 81.3363 50.3654 81.2503 50.589C81.0783 51.0276 80.9922 51.5093 80.9922 52.0081C80.9922 52.9455 81.3277 53.7195 82.0071 54.3646C82.6951 55.0096 83.4863 55.3278 84.441 55.3278C85.3956 55.3278 86.2298 55.0096 86.9093 54.3474C87.5887 53.6937 87.9155 52.8939 87.9155 51.9221C87.9155 50.9502 87.5887 50.1676 86.9093 49.5054C86.2298 48.8432 85.4214 48.5164 84.4496 48.5164ZM85.8514 53.3583C85.4988 53.7711 85.0344 53.9775 84.484 53.9775C83.9335 53.9775 83.4433 53.7711 83.0821 53.3583C82.7295 52.9541 82.5489 52.4639 82.5489 51.9049C82.5489 51.3459 82.7295 50.8728 83.0821 50.4772C83.4433 50.073 83.9078 49.8666 84.4754 49.8666C85.043 49.8666 85.4988 50.073 85.86 50.4858C86.2126 50.89 86.3932 51.3717 86.3932 51.9307C86.3932 52.4897 86.2126 52.9541 85.8686 53.3583H85.8514ZM100.739 50.9846H100.592L100.549 50.9416C100.429 50.7266 100.24 50.5718 99.9989 50.46C99.7495 50.3482 99.4829 50.2966 99.1991 50.2966C98.5025 50.2966 97.9348 50.546 97.4962 51.0276C97.0576 51.5179 96.834 52.1199 96.834 52.8165C96.834 53.5131 97.0576 54.1496 97.4876 54.6226C97.9176 55.1042 98.4939 55.345 99.1991 55.345C99.4829 55.345 99.7495 55.2934 100.008 55.1816C100.257 55.0784 100.438 54.915 100.549 54.7L100.575 54.6484H100.721L100.739 54.743V55.1816H102.02V50.4686H100.739V50.9932V50.9846ZM100.36 53.7711C100.111 54.0291 99.7925 54.1582 99.4141 54.1582C99.0357 54.1582 98.7347 54.0291 98.4853 53.7711C98.2359 53.5131 98.1068 53.1949 98.1068 52.8337C98.1068 52.4725 98.2273 52.1371 98.4681 51.8791C98.7089 51.6211 99.0271 51.4835 99.4055 51.4835C99.7839 51.4835 100.111 51.6125 100.36 51.8619C100.61 52.1113 100.739 52.4381 100.739 52.8165C100.739 53.1949 100.61 53.5131 100.36 53.7711ZM109.906 51.3889H112.065L109.906 54.2872V55.173H113.364V54.2442H111.36L113.364 51.4491V50.46H109.906V51.3889ZM108.135 55.173H109.416V50.46H108.135V55.173ZM108.135 49.7548H109.416V48.826H108.135V49.7548ZM94.9075 50.9158H94.7613L94.7183 50.8728C94.4775 50.4858 94.0561 50.2966 93.4455 50.2966C92.7489 50.2966 92.1726 50.546 91.734 51.0362C91.2954 51.5265 91.0718 52.1371 91.0718 52.8423C91.0718 53.5475 91.2954 54.1324 91.7426 54.614C92.1812 55.087 92.7575 55.3278 93.4541 55.3278C93.7121 55.3278 93.9701 55.2676 94.2023 55.1644C94.4345 55.0526 94.6065 54.8978 94.7183 54.6828L94.7441 54.6312H94.8903L94.9075 54.7258V54.872C94.9075 55.302 94.7957 55.646 94.5807 55.904C94.3571 56.162 94.0389 56.2996 93.6261 56.2996C93.1875 56.2996 92.8865 56.1362 92.7145 55.818H91.1836C91.2266 56.033 91.3126 56.2394 91.4502 56.4372C91.8716 57.0479 92.5683 57.3575 93.5143 57.3575C93.9959 57.3575 94.4689 57.2629 94.9247 57.0737C95.3719 56.8844 95.7074 56.6092 95.9138 56.248C96.103 55.9298 96.189 55.4052 96.189 54.6828V50.4686H94.9075V50.9244V50.9158ZM94.5463 53.7797C94.3055 54.0292 93.9959 54.1496 93.6175 54.1496C93.2391 54.1496 92.9381 54.0119 92.7059 53.7453C92.4737 53.4787 92.3532 53.1605 92.3532 52.7907C92.3532 52.4209 92.4736 52.1199 92.7145 51.8705C92.9553 51.6125 93.2649 51.4835 93.6261 51.4835C93.9873 51.4835 94.3141 51.6125 94.5549 51.8791C94.7871 52.1371 94.9075 52.4553 94.9075 52.8423C94.9075 53.2293 94.7871 53.5303 94.5463 53.7797ZM141.728 50.9846H141.581L141.538 50.9416C141.418 50.7266 141.229 50.5718 140.988 50.46C140.739 50.3482 140.472 50.2966 140.188 50.2966C139.492 50.2966 138.924 50.546 138.485 51.0276C138.047 51.5179 137.823 52.1199 137.823 52.8165C137.823 53.5131 138.047 54.1496 138.477 54.6226C138.907 55.1042 139.483 55.345 140.188 55.345C140.472 55.345 140.739 55.2934 140.997 55.1816C141.246 55.0784 141.427 54.915 141.538 54.7L141.564 54.6484H141.71L141.728 54.743V55.1816H143.009V50.4686H141.728V50.9932V50.9846ZM141.349 53.7711C141.1 54.0291 140.782 54.1582 140.403 54.1582C140.025 54.1582 139.724 54.0291 139.474 53.7711C139.225 53.5131 139.096 53.1949 139.096 52.8337C139.096 52.4725 139.216 52.1371 139.457 51.8791C139.698 51.6211 140.016 51.4835 140.395 51.4835C140.773 51.4835 141.1 51.6125 141.349 51.8619C141.599 52.1113 141.728 52.4381 141.728 52.8165C141.728 53.1949 141.599 53.5131 141.349 53.7711ZM89.8936 50.933L89.8678 50.9846H89.7216L89.7044 50.89V50.46H88.5089V55.173H89.7904V52.5757C89.7904 52.1973 89.9022 51.9307 90.1258 51.7931C90.3236 51.6727 90.5902 51.6039 90.9428 51.5867V50.2966C90.444 50.3224 90.1 50.5288 89.8936 50.933ZM117.552 50.9846H117.406L117.363 50.9416C117.243 50.7266 117.053 50.5718 116.813 50.46C116.563 50.3482 116.296 50.2966 116.013 50.2966C115.316 50.2966 114.748 50.546 114.31 51.0276C113.871 51.5179 113.648 52.1199 113.648 52.8165C113.648 53.5131 113.871 54.1496 114.301 54.6226C114.731 55.1042 115.307 55.345 116.013 55.345C116.296 55.345 116.563 55.2934 116.821 55.1816C117.071 55.0784 117.251 54.915 117.363 54.7L117.389 54.6484H117.535L117.552 54.743V55.1816H118.834V50.4686H117.552V50.9932V50.9846ZM117.174 53.7711C116.924 54.0291 116.606 54.1582 116.228 54.1582C115.849 54.1582 115.548 54.0291 115.299 53.7711C115.049 53.5131 114.92 53.1949 114.92 52.8337C114.92 52.4725 115.041 52.1371 115.282 51.8791C115.522 51.6211 115.841 51.4835 116.219 51.4835C116.598 51.4835 116.924 51.6125 117.174 51.8619C117.423 52.1113 117.552 52.4381 117.552 52.8165C117.552 53.1949 117.423 53.5131 117.174 53.7711ZM143.946 48.826V55.173H145.228V48.826H143.946ZM125.129 55.173H126.41V50.46H125.129V55.173ZM129.618 50.2966C128.896 50.2966 128.285 50.5374 127.795 51.0104C127.313 51.4835 127.064 52.0855 127.064 52.8079C127.064 53.5303 127.305 54.1324 127.795 54.6054C128.277 55.0784 128.887 55.3192 129.618 55.3192C130.349 55.3192 130.951 55.0784 131.442 54.6054C131.923 54.1324 132.173 53.5303 132.173 52.8079C132.173 52.0855 131.932 51.4835 131.442 51.0104C130.96 50.5374 130.349 50.2966 129.618 50.2966ZM130.521 53.7453C130.281 54.0119 129.98 54.141 129.618 54.141C129.257 54.141 128.956 54.0119 128.715 53.7453C128.475 53.4873 128.354 53.1691 128.354 52.8165C128.354 52.4639 128.475 52.1457 128.715 51.8877C128.956 51.6211 129.257 51.4921 129.618 51.4921C129.98 51.4921 130.281 51.6211 130.521 51.8877C130.762 52.1457 130.883 52.4639 130.883 52.8165C130.883 53.1691 130.762 53.4873 130.521 53.7453ZM125.129 49.7548H126.41V48.826H125.129V49.7548ZM52.766 50.9244H52.6198L52.5768 50.8814C52.4564 50.6664 52.2672 50.5116 52.0264 50.3998C51.777 50.288 51.5104 50.2364 51.2266 50.2364C50.53 50.2364 49.9623 50.4858 49.5237 50.9674C49.0851 51.4577 48.8615 52.0597 48.8615 52.7563C48.8615 53.4529 49.0851 54.0894 49.5151 54.5624C49.9452 55.044 50.5214 55.2848 51.2266 55.2848C51.5104 55.2848 51.777 55.2332 52.035 55.1214C52.293 55.0096 52.465 54.8548 52.5768 54.6398L52.6026 54.5882H52.7488L52.766 54.6828V55.1214H54.0475V50.4084H52.766V50.933V50.9244ZM52.3876 53.7109C52.1382 53.9689 51.82 54.098 51.4416 54.098C51.0632 54.098 50.7622 53.9689 50.5128 53.7109C50.2634 53.4529 50.1344 53.1347 50.1344 52.7735C50.1344 52.4123 50.2548 52.0769 50.4956 51.8189C50.7364 51.5609 51.0546 51.4233 51.433 51.4233C51.8114 51.4233 52.1382 51.5523 52.3876 51.8017C52.637 52.0511 52.766 52.3779 52.766 52.7563C52.766 53.1347 52.637 53.4529 52.3876 53.7109ZM67.3694 50.8728L67.3436 50.9244H67.1974L67.1802 50.8298V50.3998H65.9847V55.1128H67.2662V52.5155C67.2662 52.1371 67.378 51.8705 67.6016 51.7329C67.7994 51.6125 68.0746 51.5437 68.4186 51.5265V50.2364C67.9198 50.2622 67.5758 50.4686 67.3608 50.8728H67.3694ZM70.9901 50.2364C70.3107 50.2364 69.7172 50.4858 69.2356 50.9846C68.754 51.4835 68.5132 52.0855 68.5132 52.7735C68.5132 53.4615 68.7626 54.055 69.2442 54.5452C69.7258 55.0354 70.3279 55.2762 71.0159 55.2762C71.5319 55.2762 71.9963 55.1214 72.3919 54.829C72.7618 54.5538 73.0542 54.2012 73.2606 53.7711H71.9447C71.6953 54.0722 71.3771 54.227 71.0073 54.227C70.6977 54.227 70.4139 54.1324 70.1903 53.9603C69.9581 53.7797 69.8204 53.5303 69.7688 53.2293L69.7516 53.1261H73.4498C73.467 53.0315 73.467 52.9369 73.467 52.8251C73.467 52.1027 73.2262 51.4921 72.7532 50.9932C72.2801 50.4944 71.6781 50.245 70.9729 50.245L70.9901 50.2364ZM69.7688 52.3091L69.7947 52.1973C69.8549 51.9135 70.0011 51.6899 70.2247 51.5265C70.4483 51.3631 70.7063 51.2857 70.9901 51.2857C71.2739 51.2857 71.5405 51.3631 71.7555 51.5265C71.9791 51.6899 72.1253 51.9135 72.1855 52.1973L72.2113 52.3091H69.7603H69.7688ZM43.3057 52.2919C43.2713 52.3349 43.2197 52.3693 43.1595 52.3693C43.0649 52.3693 42.9789 52.2919 42.9703 52.1973V48.5766H41.5685L36.6405 55.1214H38.0939L41.19 51.2857C41.233 51.2169 41.3104 51.1738 41.3964 51.1738H41.4137C41.5513 51.1738 41.6631 51.2857 41.6631 51.4233V55.1214H42.5489L46.2728 51.3803C46.3244 51.3287 46.3846 51.3029 46.462 51.3029C46.5996 51.3029 46.72 51.4147 46.72 51.5523V55.1214H48.0187V48.5766H47.0296L43.2971 52.3005L43.3057 52.2919ZM73.725 51.3287H75.8837L73.725 54.227V55.1128H77.1823V54.184H75.1784L77.1823 51.3889V50.3998H73.725V51.3287ZM58.5799 50.9502L58.4251 50.7954C58.0552 50.4256 57.608 50.2364 57.049 50.2364C56.361 50.2364 55.7934 50.4772 55.3633 50.9588C54.9333 51.4405 54.7097 52.0425 54.7097 52.7477C54.7097 53.4529 54.9247 54.0722 55.3633 54.5538C55.7934 55.0354 56.3696 55.2762 57.0748 55.2762C57.78 55.2762 58.21 55.0698 58.4595 54.6312L58.4853 54.5882H58.6315L58.6487 54.6828V55.1214H59.8613V48.7744H58.5799V50.9502ZM58.2788 53.7023C58.0294 53.9603 57.7026 54.0894 57.3156 54.0894C56.9286 54.0894 56.6018 53.9603 56.361 53.7023C56.1202 53.4443 55.9998 53.1175 55.9998 52.7305C55.9998 52.3435 56.1288 52.0339 56.3868 51.7845C56.6448 51.5351 56.963 51.4061 57.3414 51.4061C57.7198 51.4061 58.038 51.5351 58.2874 51.7845C58.5369 52.0339 58.6659 52.3521 58.6659 52.7305C58.6659 53.1089 58.5369 53.4443 58.2874 53.7023H58.2788ZM63.826 52.9971C63.826 53.9001 63.3186 54.0894 62.8972 54.0894C62.5618 54.0894 62.321 53.9948 62.2006 53.7969C62.0802 53.6163 62.02 53.3583 62.02 53.0229V50.4084H60.7385V53.2465C60.7385 53.5819 60.7643 53.8571 60.8159 54.0635C60.8675 54.27 60.9793 54.485 61.1599 54.7C61.4782 55.0956 61.9254 55.2848 62.5274 55.2848C63.1294 55.2848 63.5164 55.0784 63.7142 54.657L63.74 54.6054H63.8862L63.9034 54.7V55.13H65.1075V50.417H63.826V53.0143V52.9971Z" fill="white"/>
<path d="M82.2995 31.7113L71.8931 42.1177C71.8157 42.1951 71.8673 42.3241 71.9791 42.3241H82.3855C82.4543 42.3241 82.5059 42.2725 82.5059 42.2037V31.7973C82.5059 31.6941 82.3769 31.6339 82.2995 31.7113ZM43.9766 55.0869C43.9766 55.0869 43.9766 55.1213 43.9938 55.1213H45.6364C45.6364 55.1213 45.6536 55.1127 45.6536 55.1041V53.4615C45.6536 53.4615 45.6364 53.4357 45.6192 53.4443L43.9766 55.0869Z" fill="#008975"/>
</g>
<defs>
<clipPath id="clip0_1_8629">
<rect width="145.018" height="57.278" fill="white" transform="translate(0.209595 0.0708008)"/>
</clipPath>
</defs>
</svg>
