<svg width="146" height="58" viewBox="0 0 146 58" fill="none" xmlns="http://www.w3.org/2000/svg">
<g clip-path="url(#clip0_1_5899)">
<path d="M138.679 6.23712C134.369 2.03889 129.268 0 123.091 0C115.632 0 109.877 2.79595 105.489 8.5341C104.259 10.1342 103.364 11.6742 102.822 13.1281C101.73 15.924 101.179 18.935 101.179 22.0923C101.179 28.0369 103.287 32.9148 107.614 37.0012C111.967 41.1134 117.008 43.1093 123.039 43.1093C129.07 43.1093 134.378 41.079 138.688 36.8979C142.989 32.7341 145.08 27.71 145.08 21.5589C145.08 15.4078 142.989 10.4267 138.688 6.24572L138.679 6.23712ZM131.934 30.6522C129.672 33.2503 126.755 34.5751 123.254 34.5751C119.753 34.5751 116.664 33.2589 114.376 30.6608C112.131 28.1144 110.986 25.0173 110.986 21.4471C110.986 17.8769 112.122 14.9003 114.35 12.3882C116.63 9.83314 119.589 8.5341 123.151 8.5341C126.712 8.5341 129.629 9.85895 131.909 12.4828C134.137 15.0465 135.264 18.1178 135.264 21.6105C135.264 25.1033 134.145 28.1144 131.934 30.6522ZM97.2475 0.843087H91.1394C91.1394 0.843087 91.0792 0.851689 91.0533 0.877498L67.4555 24.3979C67.2405 24.6904 66.8963 24.8883 66.5092 24.8883C65.8898 24.8883 65.3736 24.3979 65.3392 23.7785V0.963527C65.3392 0.894704 65.2876 0.843087 65.2188 0.843087H56.547C56.547 0.843087 56.4782 0.860292 56.4524 0.894704L34.4375 30.1274V0.843087H26.7207V18.0575C26.7207 18.0575 26.7207 18.0747 26.7207 18.0833C26.7207 18.0919 26.7207 18.1092 26.7207 18.1178C26.7207 18.9178 26.0669 19.5717 25.2668 19.5717C24.7076 19.5717 24.2258 19.2533 23.985 18.7888H23.9764L12.6807 0.843087H0V42.2662H7.72543V16.8101C7.72543 16.7585 7.72543 16.7069 7.72543 16.6553C7.72543 16.6381 7.72543 16.6208 7.72543 16.6036C7.72543 16.5692 7.72543 16.5434 7.73403 16.509C7.73403 16.4832 7.73403 16.4574 7.73403 16.4316C7.82006 15.7175 8.43087 15.1584 9.17072 15.1584C9.62667 15.1584 10.031 15.3734 10.2977 15.7003C10.2977 15.7003 10.2977 15.7003 10.2977 15.7089C10.3321 15.752 10.3579 15.7864 10.3923 15.8294C10.4181 15.8638 10.4526 15.8982 10.4784 15.9412L27.0046 42.2662H34.4461C34.4461 42.2662 34.5149 42.249 34.5407 42.2232L54.0952 17.9887C54.3877 17.5414 54.8867 17.2747 55.42 17.2747C56.3578 17.2747 57.1148 18.0317 57.1148 18.9694V42.1457C57.1148 42.2146 57.1664 42.2662 57.2353 42.2662H62.6637C62.6637 42.2662 62.7239 42.2576 62.7497 42.2318L86.3045 18.5737C86.6056 18.264 87.0272 18.0661 87.4917 18.0661C88.3864 18.0661 89.1091 18.7802 89.1435 19.6663V42.1457C89.1435 42.2146 89.1951 42.2662 89.2639 42.2662H97.2561C97.3249 42.2662 97.3765 42.2146 97.3765 42.1457V0.963527C97.3765 0.894704 97.3249 0.843087 97.2561 0.843087H97.2475Z" fill="black"/>
<path d="M31.2028 50.2411C30.5232 50.2411 29.9296 50.4906 29.4478 50.9895C28.966 51.4885 28.7252 52.0907 28.7252 52.7789C28.7252 53.4672 28.9746 54.0608 29.4564 54.5511C29.9382 55.0329 30.5404 55.2824 31.2286 55.2824C31.7448 55.2824 32.2093 55.1275 32.6051 54.835C32.975 54.5597 33.2675 54.207 33.474 53.7769H32.1577C31.9082 54.078 31.5899 54.2328 31.22 54.2328C30.9103 54.2328 30.635 54.1382 30.4027 53.9661C30.1705 53.7855 30.0328 53.536 29.9812 53.2349L29.964 53.1317H33.6632C33.6804 53.037 33.6804 52.9424 33.6804 52.8306C33.6804 52.1079 33.4396 51.4971 32.9664 50.9981C32.4932 50.4992 31.891 50.2497 31.1856 50.2497L31.2028 50.2411ZM29.9812 52.3144L30.007 52.2025C30.0672 51.9186 30.2135 51.695 30.4371 51.5315C30.6608 51.3681 30.9189 51.2906 31.2028 51.2906C31.4867 51.2906 31.7534 51.3681 31.9685 51.5315C32.1921 51.695 32.3384 51.9186 32.3986 52.2025L32.4244 52.3144H29.9726H29.9812ZM10.659 53.4586H10.5214L10.487 53.3897L9.56645 50.4045H8.2502L9.93638 55.1189H11.2096L12.913 50.4045H11.5967L10.659 53.4586ZM6.42638 55.1189H7.70822V50.4045H6.42638V55.1189ZM26.8153 50.9551L26.6605 50.8003C26.2905 50.4303 25.8432 50.2411 25.284 50.2411C24.5958 50.2411 24.028 50.482 23.5978 50.9637C23.1677 51.4455 22.944 52.0477 22.944 52.7531C22.944 53.4586 23.1591 54.078 23.5978 54.5597C24.028 55.0415 24.6044 55.2824 25.3098 55.2824C26.0152 55.2824 26.4368 55.0759 26.6949 54.6372L26.7207 54.5942H26.8669L26.8841 54.6888V55.1275H28.0971V48.7786H26.8153V50.9551ZM26.5142 53.7081C26.2647 53.9661 25.9378 54.0952 25.5507 54.0952C25.1636 54.0952 24.8366 53.9661 24.5958 53.7081C24.3549 53.45 24.2344 53.1231 24.2344 52.7359C24.2344 52.3488 24.3635 52.0391 24.6216 51.7896C24.8797 51.5401 25.198 51.4111 25.5679 51.4111C25.9378 51.4111 26.2647 51.5401 26.5142 51.7896C26.7637 52.0391 26.8927 52.3574 26.8927 52.7359C26.8927 53.1145 26.7637 53.45 26.5142 53.7081ZM6.42638 49.6991H7.70822V48.77H6.42638V49.6991ZM4.21543 51.2992C4.21543 51.4283 4.1122 51.5315 3.98315 51.5315C3.89712 51.5315 3.8197 51.4799 3.77668 51.4111L1.99588 48.5807H0V55.1189H1.22162V51.1014C1.22162 51.1014 1.22162 51.0842 1.22162 51.0756C1.22162 51.0756 1.22162 51.067 1.22162 51.0584V51.0498C1.23882 50.9379 1.33345 50.8519 1.44529 50.8519C1.51411 50.8519 1.58294 50.8863 1.62595 50.9379C1.62595 50.9379 1.63456 50.9465 1.64316 50.9551C1.64316 50.9551 1.65176 50.9637 1.66036 50.9723L4.26705 55.1275H5.43705V48.5893H4.21543V51.3078V51.2992ZM18.6339 55.1189H19.9158V48.77H18.6339V55.1189ZM15.5025 50.2411C14.8228 50.2411 14.2292 50.4906 13.7475 50.9895C13.2657 51.4885 13.0248 52.0907 13.0248 52.7789C13.0248 53.4672 13.2743 54.0608 13.7561 54.5511C14.2378 55.0329 14.84 55.2824 15.5283 55.2824C16.0445 55.2824 16.509 55.1275 16.9047 54.835C17.2747 54.5597 17.5672 54.207 17.7736 53.7769H16.4574C16.2079 54.078 15.8896 54.2328 15.5197 54.2328C15.21 54.2328 14.9347 54.1382 14.7024 53.9661C14.4701 53.7855 14.3325 53.536 14.2809 53.2349L14.2636 53.1317H17.9629C17.9801 53.037 17.9801 52.9424 17.9801 52.8306C17.9801 52.1079 17.7392 51.4971 17.2661 50.9981C16.7929 50.4992 16.1993 50.2497 15.4853 50.2497L15.5025 50.2411ZM14.2809 52.3144L14.3067 52.2025C14.3669 51.9186 14.5131 51.695 14.7368 51.5315C14.9605 51.3681 15.2186 51.2906 15.5025 51.2906C15.7864 51.2906 16.0531 51.3681 16.2681 51.5315C16.4918 51.695 16.6381 51.9186 16.6983 52.2025L16.7241 52.3144H14.2723H14.2809ZM135.926 50.3443C135.703 50.2755 135.487 50.2325 135.281 50.2325C134.705 50.2325 134.292 50.4475 134.025 50.8777L133.999 50.9207H133.853L133.836 50.8261V50.3959H132.648V55.1103H133.93V52.5381C133.93 52.1939 133.999 51.9273 134.128 51.7294C134.266 51.5229 134.515 51.4197 134.859 51.4197C135.204 51.4197 135.427 51.5229 135.548 51.7294C135.66 51.9186 135.72 52.1853 135.72 52.5295V55.1103H137.002V52.1423C137.002 51.4369 136.821 50.9293 136.468 50.6368C136.322 50.5164 136.141 50.4131 135.918 50.3443H135.926ZM106.005 50.3443C105.782 50.2755 105.566 50.2325 105.36 50.2325C104.784 50.2325 104.371 50.4475 104.104 50.8777L104.078 50.9207H103.932L103.915 50.8261V50.3959H102.728V55.1103H104.009V52.5381C104.009 52.1939 104.078 51.9273 104.207 51.7294C104.345 51.5229 104.594 51.4197 104.938 51.4197C105.283 51.4197 105.506 51.5229 105.627 51.7294C105.739 51.9186 105.799 52.1853 105.799 52.5295V55.1103H107.081V52.1423C107.081 51.4369 106.9 50.9293 106.547 50.6368C106.401 50.5164 106.22 50.4131 105.997 50.3443H106.005ZM121.869 54.0952C121.499 54.0952 121.189 53.9661 120.957 53.7081C120.725 53.45 120.613 53.1317 120.613 52.7617C120.613 52.3918 120.725 52.0735 120.94 51.824C121.164 51.5659 121.465 51.4283 121.835 51.4283C122.368 51.4283 122.755 51.6606 122.987 52.1165H124.295C124.157 51.5745 123.865 51.1272 123.435 50.7917C122.97 50.4303 122.428 50.2497 121.817 50.2497C121.121 50.2497 120.527 50.4992 120.045 50.9809C119.563 51.4713 119.323 52.0649 119.323 52.7617C119.323 53.4586 119.572 54.0694 120.062 54.5597C120.553 55.0501 121.155 55.291 121.852 55.291C122.445 55.291 122.979 55.1103 123.435 54.749C123.865 54.4135 124.149 53.9834 124.304 53.45H122.987C122.738 53.8801 122.368 54.1038 121.878 54.1038L121.869 54.0952ZM84.2656 48.4603C83.087 48.4603 82.1751 48.899 81.4869 49.8109C81.289 50.0604 81.1514 50.3099 81.0654 50.5336C80.8933 50.9723 80.8073 51.4541 80.8073 51.9531C80.8073 52.8908 81.1428 53.665 81.8224 54.3103C82.5106 54.9555 83.3021 55.2738 84.257 55.2738C85.212 55.2738 86.0464 54.9555 86.7261 54.2931C87.4057 53.6392 87.7326 52.8392 87.7326 51.867C87.7326 50.8949 87.4057 50.112 86.7261 49.4496C86.0464 48.7872 85.2378 48.4603 84.2656 48.4603ZM85.6679 53.3037C85.3152 53.7167 84.8506 53.9231 84.3 53.9231C83.7495 53.9231 83.2591 53.7167 82.8978 53.3037C82.5451 52.8994 82.3644 52.409 82.3644 51.8498C82.3644 51.2906 82.5451 50.8175 82.8978 50.4217C83.2591 50.0174 83.7237 49.8109 84.2915 49.8109C84.8592 49.8109 85.3152 50.0174 85.6765 50.4303C86.0292 50.8347 86.2099 51.3164 86.2099 51.8756C86.2099 52.4348 86.0292 52.8994 85.6851 53.3037H85.6679ZM100.56 50.9293H100.413L100.37 50.8863C100.25 50.6712 100.061 50.5164 99.8197 50.4045C99.5702 50.2927 99.3036 50.2411 99.0197 50.2411C98.3228 50.2411 97.755 50.4906 97.3163 50.9723C96.8775 51.4627 96.6538 52.0649 96.6538 52.7617C96.6538 53.4586 96.8775 54.0952 97.3077 54.5683C97.7378 55.0501 98.3142 55.291 99.0197 55.291C99.3036 55.291 99.5702 55.2394 99.8283 55.1275C100.078 55.0243 100.258 54.8608 100.37 54.6458L100.396 54.5942H100.542L100.56 54.6888V55.1275H101.841V50.4131H100.56V50.9379V50.9293ZM100.181 53.7167C99.9316 53.9747 99.6133 54.1038 99.2347 54.1038C98.8562 54.1038 98.5551 53.9747 98.3056 53.7167C98.0561 53.4586 97.9271 53.1403 97.9271 52.7789C97.9271 52.4176 98.0475 52.0821 98.2884 51.824C98.5293 51.5659 98.8476 51.4283 99.2261 51.4283C99.6046 51.4283 99.9316 51.5573 100.181 51.8068C100.431 52.0563 100.56 52.3832 100.56 52.7617C100.56 53.1403 100.431 53.4586 100.181 53.7167ZM109.73 51.3336H111.89L109.73 54.2328V55.1189H113.189V54.1898H111.184L113.189 51.3939V50.4045H109.73V51.3336ZM107.958 55.1189H109.24V50.4045H107.958V55.1189ZM107.958 49.6991H109.24V48.77H107.958V49.6991ZM94.7268 50.8605H94.5805L94.5375 50.8175C94.2966 50.4303 93.8751 50.2411 93.2643 50.2411C92.5675 50.2411 91.9911 50.4906 91.5523 50.9809C91.1136 51.4713 90.8899 52.0821 90.8899 52.7875C90.8899 53.493 91.1136 54.078 91.5609 54.5597C91.9997 55.0329 92.5761 55.2738 93.2729 55.2738C93.531 55.2738 93.7891 55.2136 94.0214 55.1103C94.2536 54.9985 94.4257 54.8436 94.5375 54.6286L94.5633 54.5769H94.7096L94.7268 54.6716V54.8178C94.7268 55.248 94.615 55.5921 94.3999 55.8502C94.1762 56.1083 93.8579 56.2459 93.445 56.2459C93.0062 56.2459 92.7051 56.0825 92.533 55.7642H91.0017C91.0447 55.9792 91.1308 56.1857 91.2684 56.3836C91.69 56.9944 92.3868 57.3041 93.3331 57.3041C93.8149 57.3041 94.288 57.2094 94.744 57.0202C95.1913 56.8309 95.5269 56.5556 95.7333 56.1943C95.9226 55.876 96.0086 55.3512 96.0086 54.6286V50.4131H94.7268V50.8691V50.8605ZM94.3655 53.7253C94.1246 53.9747 93.8149 54.0952 93.4364 54.0952C93.0578 54.0952 92.7567 53.9575 92.5244 53.6908C92.2922 53.4242 92.1717 53.1059 92.1717 52.7359C92.1717 52.366 92.2922 52.0649 92.533 51.8154C92.7739 51.5573 93.0836 51.4283 93.445 51.4283C93.8063 51.4283 94.1332 51.5573 94.3741 51.824C94.6063 52.0821 94.7268 52.4004 94.7268 52.7875C94.7268 53.1747 94.6064 53.4758 94.3655 53.7253ZM141.561 50.9293H141.415L141.372 50.8863C141.251 50.6712 141.062 50.5164 140.821 50.4045C140.572 50.2927 140.305 50.2411 140.021 50.2411C139.324 50.2411 138.757 50.4906 138.318 50.9723C137.879 51.4627 137.655 52.0649 137.655 52.7617C137.655 53.4586 137.879 54.0952 138.309 54.5683C138.739 55.0501 139.316 55.291 140.021 55.291C140.305 55.291 140.572 55.2394 140.83 55.1275C141.079 55.0243 141.26 54.8608 141.372 54.6458L141.398 54.5942H141.544L141.561 54.6888V55.1275H142.843V50.4131H141.561V50.9379V50.9293ZM141.183 53.7167C140.933 53.9747 140.615 54.1038 140.236 54.1038C139.858 54.1038 139.557 53.9747 139.307 53.7167C139.058 53.4586 138.929 53.1403 138.929 52.7789C138.929 52.4176 139.049 52.0821 139.29 51.824C139.531 51.5659 139.849 51.4283 140.228 51.4283C140.606 51.4283 140.933 51.5573 141.183 51.8068C141.432 52.0563 141.561 52.3832 141.561 52.7617C141.561 53.1403 141.432 53.4586 141.183 53.7167ZM89.7113 50.8777L89.6855 50.9293H89.5392L89.522 50.8347V50.4045H88.3262V55.1189H89.6081V52.5209C89.6081 52.1423 89.7199 51.8756 89.9436 51.738C90.1414 51.6175 90.4081 51.5487 90.7608 51.5315V50.2411C90.2619 50.2669 89.9178 50.4734 89.7113 50.8777ZM117.378 50.9293H117.232L117.189 50.8863C117.069 50.6712 116.879 50.5164 116.638 50.4045C116.389 50.2927 116.122 50.2411 115.838 50.2411C115.142 50.2411 114.574 50.4906 114.135 50.9723C113.696 51.4627 113.473 52.0649 113.473 52.7617C113.473 53.4586 113.696 54.0952 114.126 54.5683C114.557 55.0501 115.133 55.291 115.838 55.291C116.122 55.291 116.389 55.2394 116.647 55.1275C116.897 55.0243 117.077 54.8608 117.189 54.6458L117.215 54.5942H117.361L117.378 54.6888V55.1275H118.66V50.4131H117.378V50.9379V50.9293ZM117 53.7167C116.75 53.9747 116.432 54.1038 116.053 54.1038C115.675 54.1038 115.374 53.9747 115.124 53.7167C114.875 53.4586 114.746 53.1403 114.746 52.7789C114.746 52.4176 114.866 52.0821 115.107 51.824C115.348 51.5659 115.666 51.4283 116.045 51.4283C116.423 51.4283 116.75 51.5573 117 51.8068C117.249 52.0563 117.378 52.3832 117.378 52.7617C117.378 53.1403 117.249 53.4586 117 53.7167ZM143.781 48.77V55.1189H145.062V48.77H143.781ZM124.957 55.1189H126.239V50.4045H124.957V55.1189ZM129.448 50.2411C128.726 50.2411 128.115 50.482 127.624 50.9551C127.143 51.4283 126.893 52.0305 126.893 52.7531C126.893 53.4758 127.134 54.078 127.624 54.5511C128.106 55.0243 128.717 55.2652 129.448 55.2652C130.179 55.2652 130.782 55.0243 131.272 54.5511C131.754 54.078 132.003 53.4758 132.003 52.7531C132.003 52.0305 131.762 51.4283 131.272 50.9551C130.79 50.482 130.179 50.2411 129.448 50.2411ZM130.352 53.6908C130.111 53.9575 129.81 54.0866 129.448 54.0866C129.087 54.0866 128.786 53.9575 128.545 53.6908C128.304 53.4328 128.184 53.1145 128.184 52.7617C128.184 52.409 128.304 52.0907 128.545 51.8326C128.786 51.5659 129.087 51.4369 129.448 51.4369C129.81 51.4369 130.111 51.5659 130.352 51.8326C130.592 52.0907 130.713 52.409 130.713 52.7617C130.713 53.1145 130.592 53.4328 130.352 53.6908ZM124.957 49.6991H126.239V48.77H124.957V49.6991ZM52.5725 50.8691H52.4262L52.3832 50.8261C52.2628 50.611 52.0735 50.4562 51.8326 50.3443C51.5831 50.2325 51.3164 50.1809 51.0325 50.1809C50.3357 50.1809 49.7679 50.4303 49.3292 50.9121C48.8904 51.4025 48.6667 52.0047 48.6667 52.7015C48.6667 53.3983 48.8904 54.035 49.3206 54.5081C49.7507 54.9899 50.3271 55.2308 51.0325 55.2308C51.3164 55.2308 51.5831 55.1792 51.8412 55.0673C52.0993 54.9555 52.2714 54.8006 52.3832 54.5856L52.409 54.5339H52.5553L52.5725 54.6286V55.0673H53.8543V50.3529H52.5725V50.8777V50.8691ZM52.1939 53.6564C51.9445 53.9145 51.6261 54.0436 51.2476 54.0436C50.8691 54.0436 50.568 53.9145 50.3185 53.6564C50.069 53.3983 49.94 53.08 49.94 52.7187C49.94 52.3574 50.0604 52.0219 50.3013 51.7638C50.5422 51.5057 50.8605 51.3681 51.239 51.3681C51.6175 51.3681 51.9445 51.4971 52.1939 51.7466C52.4434 51.9961 52.5725 52.323 52.5725 52.7015C52.5725 53.08 52.4434 53.3983 52.1939 53.6564ZM67.1802 50.8175L67.1544 50.8691H67.0082L66.991 50.7745V50.3443H65.7952V55.0587H67.077V52.4606C67.077 52.0821 67.1888 51.8154 67.4125 51.6778C67.6104 51.5573 67.8857 51.4885 68.2298 51.4713V50.1809C67.7308 50.2067 67.3867 50.4131 67.1716 50.8175H67.1802ZM70.8021 50.1809C70.1224 50.1809 69.5288 50.4303 69.0471 50.9293C68.5653 51.4283 68.3244 52.0305 68.3244 52.7187C68.3244 53.407 68.5739 54.0006 69.0557 54.4909C69.5374 54.9813 70.1396 55.2222 70.8279 55.2222C71.344 55.2222 71.8086 55.0673 72.2043 54.7748C72.5743 54.4995 72.8668 54.1468 73.0732 53.7167H71.757C71.5075 54.0178 71.1892 54.1726 70.8193 54.1726C70.5096 54.1726 70.2257 54.078 70.002 53.9059C69.7697 53.7253 69.6321 53.4758 69.5804 53.1747L69.5632 53.0714H73.2625C73.2797 52.9768 73.2797 52.8822 73.2797 52.7703C73.2797 52.0477 73.0388 51.4369 72.5657 50.9379C72.0925 50.4389 71.4903 50.1895 70.7849 50.1895L70.8021 50.1809ZM69.5804 52.2542L69.6063 52.1423C69.6665 51.8584 69.8127 51.6348 70.0364 51.4713C70.2601 51.3078 70.5182 51.2304 70.8021 51.2304C71.086 51.2304 71.3527 51.3078 71.5677 51.4713C71.7914 51.6348 71.9377 51.8584 71.9979 52.1423L72.0237 52.2542H69.5718H69.5804ZM43.1093 52.237C43.0748 52.28 43.0232 52.3144 42.963 52.3144C42.8684 52.3144 42.7823 52.237 42.7737 52.1423V48.5205H41.3715L36.442 55.0673H37.8959L40.9929 51.2304C41.0359 51.1616 41.1134 51.1186 41.1994 51.1186H41.2166C41.3543 51.1186 41.4661 51.2304 41.4661 51.3681V55.0673H42.3522L46.0773 51.325C46.1289 51.2734 46.1891 51.2476 46.2665 51.2476C46.4042 51.2476 46.5246 51.3595 46.5246 51.4971V55.0673H47.8237V48.5205H46.8343L43.1006 52.2456L43.1093 52.237ZM73.5378 51.2734H75.6971L73.5378 54.1726V55.0587H76.9962V54.1296H74.9917L76.9962 51.3336V50.3443H73.5378V51.2734ZM58.388 50.8949L58.2332 50.74C57.8633 50.3701 57.4159 50.1809 56.8567 50.1809C56.1685 50.1809 55.6007 50.4217 55.1705 50.9035C54.7404 51.3853 54.5167 51.9875 54.5167 52.6929C54.5167 53.3984 54.7318 54.0178 55.1705 54.4995C55.6007 54.9813 56.1771 55.2222 56.8825 55.2222C57.588 55.2222 58.0181 55.0157 58.2676 54.5769L58.2934 54.5339H58.4397L58.4569 54.6286V55.0673H59.6699V48.7184H58.388V50.8949ZM58.0869 53.6478C57.8375 53.9059 57.5105 54.035 57.1234 54.035C56.7363 54.035 56.4094 53.9059 56.1685 53.6478C55.9276 53.3897 55.8072 53.0628 55.8072 52.6757C55.8072 52.2886 55.9362 51.9789 56.1943 51.7294C56.4524 51.4799 56.7707 51.3509 57.1492 51.3509C57.5278 51.3509 57.8461 51.4799 58.0955 51.7294C58.345 51.9789 58.4741 52.2972 58.4741 52.6757C58.4741 53.0542 58.345 53.3897 58.0955 53.6478H58.0869ZM63.6358 52.9424C63.6358 53.8457 63.1283 54.035 62.7067 54.035C62.3712 54.035 62.1303 53.9403 62.0099 53.7425C61.8894 53.5618 61.8292 53.3037 61.8292 52.9682V50.3529H60.5474V53.1919C60.5474 53.5274 60.5732 53.8027 60.6248 54.0092C60.6764 54.2156 60.7883 54.4307 60.9689 54.6458C61.2872 55.0415 61.7346 55.2308 62.3368 55.2308C62.939 55.2308 63.3261 55.0243 63.524 54.6028L63.5498 54.5511H63.696L63.7133 54.6458V55.0759H64.9177V50.3615H63.6358V52.9596V52.9424Z" fill="black"/>
<path d="M82.1149 31.6502L71.7054 42.0597C71.6279 42.1372 71.6796 42.2662 71.7914 42.2662H82.2009C82.2698 42.2662 82.3214 42.2146 82.3214 42.1458V31.7362C82.3214 31.633 82.1923 31.5728 82.1149 31.6502ZM43.7803 55.033C43.7803 55.033 43.7803 55.0674 43.7975 55.0674H45.4406C45.4406 55.0674 45.4578 55.0588 45.4578 55.0502V53.407C45.4578 53.407 45.4406 53.3812 45.4234 53.3898L43.7803 55.033Z" fill="#008975"/>
</g>
<defs>
<clipPath id="clip0_1_5899">
<rect width="145.062" height="57.2955" fill="white"/>
</clipPath>
</defs>
</svg>
